<svg xmlns="http://www.w3.org/2000/svg" viewBox="0 0 16 16">
  <g transform="translate(-208.04 -223.996)">
    <g data-name="Group 13433">
      <g data-name="passed">
        <g data-name="Group 13427">
          <rect data-name="Rectangle 13772" class="cls-1" width="16" height="16" transform="translate(208.04 223.996)"/>
        </g>
        <g data-name="Group 13430">
          <g data-name="Group 13429" class="cls-2">
            <g data-name="Group 13428">
              <ellipse data-name="Ellipse 2371" class="cls-3" cx="6.5" cy="6.5" rx="6.5" ry="6.5" transform="translate(208.918 225.007)"/>
              <path data-name="Path 8389" class="cls-4" d="M13045.419,2839.314h.049l.1,0,.095.005.1,0,.048,0,.1,0,.1.01.048.01.1.01.1.01.1.014.048.01.1.014.1.015.047.014.1.019.048.02.1.019.1.019.048.019.1.019.1.024.047.024.1.024.049.024.1.024.048.029.1.029.049.029.1.029.1.029.047.033.1.029.049.033.1.034.048.034.048.039.1.034.048.039.1.038.048.039.1.039.048.043.048.039.1.043.048.043.047.043.1.043.049.043.048.048.1.043.047.048.049.048.1.048.049.048.048.053.049.048.1.053.048.053.048.053.049.053.049.053.048.058.095.053.05.058.048.058.048.058.048.058.049.058.048.058.048.058.048.063.049.063.048.063.049.063.048.063.048.063.048.063.048.063.049.067.049.068.048.063v.067l.048.068.047.067.05.068.048.072v.067l.048.072.048.068.049.072v.072l.049.073.047.072v.072l.048.072.049.072v.077l.048.072v.077l.049.072v.077l.048.077v.077l.049.077v.077l.047.077v.077l.048.077v.158l.049.082v.236l.049.082v.327l.048.082v1l-.048.082v.327l-.049.082v.236l-.049.082v.159l-.048.077v.077l-.047.077v.077l-.049.077v.077l-.048.077v.077l-.049.072v.077l-.048.072v.077l-.049.072-.048.072v.072l-.047.072-.049.073v.072l-.049.072-.048.067-.048.072v.068l-.048.072-.05.067-.047.067-.048.067v.067l-.048.063-.049.067-.049.067-.048.063-.048.063-.048.062-.048.063-.049.063-.048.063-.049.063-.048.063-.048.058-.048.058-.049.058-.048.058-.048.058-.048.058-.05.058-.095.053-.048.058-.049.053-.049.053-.048.053-.048.053-.1.053-.049.048-.048.053-.049.048-.1.048-.049.048-.047.048-.1.043-.048.048-.049.043-.1.043-.047.043-.048.043-.1.043-.048.039-.048.043-.1.039-.048.039-.1.038-.048.039-.1.034-.048.039-.048.033-.1.034-.049.034-.1.029-.047.033-.1.029-.1.029-.049.029-.1.029-.048.029-.1.024-.049.024-.1.024-.047.024-.1.024-.1.019-.048.019-.1.019-.1.02-.048.019-.1.019-.047.014-.1.015-.1.014-.048.01-.1.014-.1.01-.1.01-.048.01-.1.01-.1,0-.048,0-.1,0-.095.005-.1,0h-.289l-.1,0-.1-.005-.1,0-.048,0-.1,0-.1-.01-.048-.01-.1-.01-.1-.01-.1-.014-.048-.01-.1-.014-.1-.015-.048-.014-.1-.019-.047-.019-.1-.02-.1-.019-.048-.019-.1-.019-.1-.024-.048-.024-.1-.024-.049-.024-.1-.024-.048-.029-.1-.029-.049-.029-.095-.029-.1-.029-.049-.033-.1-.029-.048-.034-.1-.034-.048-.033-.048-.039-.1-.034-.048-.039-.1-.038-.048-.039-.1-.039-.049-.043-.048-.039-.1-.043-.049-.043-.048-.043-.1-.043-.05-.043-.047-.048-.1-.043-.049-.048-.049-.048-.1-.048-.048-.048-.048-.053-.049-.048-.1-.053-.048-.053-.048-.053-.048-.053-.049-.053-.048-.058-.1-.053-.05-.058-.048-.058-.047-.058-.048-.058-.049-.058-.049-.058-.048-.058-.048-.062-.049-.063-.047-.062-.049-.063-.048-.062-.049-.062-.048-.063-.048-.063-.049-.067-.048-.067-.048-.063v-.067l-.048-.067-.048-.067-.049-.067-.049-.072v-.068l-.048-.072-.047-.067-.048-.072v-.072l-.05-.073-.048-.072v-.072l-.048-.072-.048-.072v-.077l-.049-.072v-.077l-.048-.072v-.077l-.048-.077v-.077l-.048-.077v-.077l-.049-.077v-.077l-.048-.077v-.159l-.049-.082v-.236l-.048-.082v-.327l-.048-.082v-1l.048-.082v-.327l.048-.082v-.236l.049-.082v-.158l.048-.077v-.077l.049-.077v-.077l.048-.077v-.077l.048-.077v-.077l.048-.072v-.077l.049-.072v-.077l.048-.072.048-.072v-.072l.048-.072.05-.073V2843l.048-.072.047-.068.048-.072v-.067l.049-.072.049-.068.048-.067.048-.068v-.067l.048-.062.048-.068.049-.067.048-.063.048-.062.049-.062.048-.062.049-.063.047-.063.049-.062.048-.062.048-.058.049-.058.049-.058.048-.058.047-.058.048-.058.05-.058.1-.053.048-.058.049-.053.048-.053.048-.053.048-.053.1-.053.049-.048.048-.053.048-.048.1-.048.049-.048.049-.048.1-.043.047-.048.05-.043.1-.043.048-.043.049-.043.1-.043.048-.039.049-.043.1-.039.048-.039.1-.038.048-.039.1-.034.048-.039.048-.034.1-.034.048-.033.1-.029.049-.033.1-.029.095-.029.049-.029.1-.029.048-.029.1-.024.049-.024.1-.024.048-.024.1-.024.1-.019.048-.019.1-.019.1-.019.047-.02.1-.019.048-.014.1-.015.1-.014.048-.01.1-.014.1-.01.1-.01.048-.01.1-.01.1,0,.048,0,.1,0,.1-.005.1,0h.24Zm-.145,1h-.1l-.048,0h-.1l-.048,0-.1,0-.048,0-.1.01-.05,0-.1.01-.047.01-.049.01-.1.01-.048.014-.1.01-.048.015-.048.014-.1.015-.048.014-.1.02-.047.014-.048.019-.1.019-.048.019-.048.019-.1.024-.049.019-.048.024-.1.024-.048.024-.049.024-.047.024-.1.029-.048.029-.049.024-.049.029-.095.029-.048.034-.049.029-.049.029-.1.033-.048.034-.049.034-.048.034-.048.033-.1.039-.049.034-.048.039-.047.039-.049.034-.048.043-.049.039-.048.038-.049.038-.095.043-.049.043-.049.038-.048.043-.048.043-.048.048-.05.043-.047.043-.048.048-.048.043-.049.048-.049.048-.048.048-.048.048v.048l-.048.053-.048.048-.049.053-.048.048-.049.053-.048.053-.048.053v.053l-.048.053-.049.053-.048.058v.053l-.048.058-.048.053-.05.058v.058l-.048.058-.047.058v.058l-.048.058-.049.057v.063l-.049.058-.048.063v.058l-.048.063v.063l-.049.063v.058l-.047.063v.063l-.049.067v.063l-.048.063v.067l-.049.063v.13l-.048.067v.13l-.048.067v.2l-.049.067v.274l-.048.067v1.127l.048.067v.274l.049.067v.2l.048.067v.13l.048.067v.13l.049.067v.063l.048.063v.063l.049.068v.063l.047.063v.063l.049.058v.063l.048.063v.058l.048.063.049.058v.063l.049.058.048.058v.058l.047.058.048.058v.058l.05.058.048.053.048.058v.053l.048.058.049.053.048.053v.053l.048.053.048.053.049.053.048.048.049.053.048.048.048.053v.048l.048.048.048.048.049.048.049.043.048.048.048.048.047.043.05.043.048.048.048.043.048.043.049.038.049.043.095.043.049.038.048.038.049.039.048.043.049.039.047.034.048.039.049.033.1.039.048.034.048.033.049.034.048.034.1.034.049.029.049.029.048.034.095.029.049.029.049.024.048.029.1.029.047.024.049.024.048.024.1.024.048.024.049.019.1.024.048.019.048.019.1.019.048.019.047.015.1.019.048.014.1.015.048.014.048.014.1.01.048.014.1.01.049.01.047.01.1.01.05,0,.1.01.048,0,.1,0,.048,0h.1l.048,0h.289l.049,0h.095l.048,0,.1,0,.048,0,.1-.01.048,0,.1-.01.049-.01.048-.01.1-.01.048-.014.1-.01.049-.014.048-.014.1-.015.047-.014.1-.019.048-.015.048-.019.1-.019.048-.019.048-.019.1-.024.049-.019.048-.024.1-.024.048-.024.049-.024.048-.024.1-.029.048-.029.048-.024.049-.029.1-.029.048-.034.05-.029.047-.029.1-.034.049-.034.049-.034.048-.033.048-.034.1-.039.049-.033.048-.039.049-.039.048-.034.048-.043.048-.039.049-.038.048-.038.1-.043.05-.043.048-.038.047-.043.048-.043.049-.048.049-.043.048-.043.048-.048.049-.048.047-.043.049-.048.048-.048.048-.048v-.048l.049-.053.048-.048.049-.053.047-.048.049-.053.048-.053.048-.053v-.053l.049-.053.049-.053.048-.058v-.053l.047-.058.048-.053.05-.058v-.058l.048-.058.048-.058v-.058l.048-.058.049-.058v-.063l.048-.058.048-.063v-.058l.048-.063v-.062l.049-.058v-.062l.048-.062v-.062l.049-.068v-.062l.048-.063v-.063l.048-.067v-.13l.048-.067v-.13l.048-.067v-.2l.049-.067v-.274l.049-.067v-1.127l-.049-.067v-.274l-.049-.067v-.2l-.048-.067v-.13l-.048-.067v-.13l-.048-.063v-.067l-.048-.063v-.062l-.049-.067v-.062l-.048-.062v-.058l-.049-.062v-.062l-.048-.063v-.058l-.048-.063-.048-.058v-.063l-.049-.057-.048-.058v-.058l-.048-.058-.048-.058v-.058l-.05-.058-.048-.053-.047-.058v-.053l-.048-.058-.049-.053-.049-.053v-.053l-.048-.053-.048-.053-.049-.053-.047-.048-.049-.053-.048-.048-.049-.053v-.048l-.048-.048-.048-.048-.049-.048-.047-.048-.049-.043-.048-.048-.048-.043-.049-.043-.049-.048-.048-.043-.047-.043-.048-.038-.05-.043-.1-.043-.048-.038-.049-.038-.048-.039-.048-.043-.048-.034-.049-.039-.048-.039-.049-.034-.1-.039-.048-.033-.048-.034-.049-.034-.049-.034-.1-.033-.047-.029-.05-.029-.048-.034-.1-.029-.049-.029-.048-.024-.048-.029-.1-.029-.048-.024-.049-.024-.048-.024-.1-.024-.048-.024-.049-.019-.1-.024-.048-.019-.048-.019-.1-.019-.048-.019-.048-.014-.1-.02-.047-.014-.1-.015-.048-.014-.049-.015-.1-.01-.048-.014-.1-.01-.048-.01-.049-.01-.1-.01-.048,0-.1-.01-.048,0-.1,0-.048,0h-.095l-.049,0h-.193Z" transform="translate(-12829.904 -2614.307)"/>
            </g>
          </g>
        </g>
        <g data-name="Group 13431">
          <path data-name="Path 8390" class="cls-5" d="M11616.151,2359.909l-4.457,4.5-2.529-2.5" transform="translate(-11397.138 -2129.904)"/>
        </g>
        <g data-name="Group 13432">
          <path data-name="Path 8391" class="cls-6" d="M11616.151,2359.909l-4.457,4.5-2.529-2.5" transform="translate(-11397.138 -2130.908)"/>
        </g>
      </g>
    </g>
  </g>
</svg>
